<?xml version="1.0" standalone="no"?>
<!DOCTYPE svg PUBLIC "-//W3C//DTD SVG 1.1//EN" "http://www.w3.org/Graphics/SVG/1.1/DTD/svg11.dtd" >
<svg xmlns="http://www.w3.org/2000/svg" xmlns:xlink="http://www.w3.org/1999/xlink" version="1.1">
<metadata></metadata>
<defs>
<font id="yantramanavthin" horiz-adv-x="1009" >
<font-face units-per-em="2048" ascent="1638" descent="-410" />
<missing-glyph horiz-adv-x="500" />
<glyph horiz-adv-x="0" />
<glyph unicode="&#xd;" horiz-adv-x="505" />
<glyph unicode=" "  horiz-adv-x="500" />
<glyph unicode="&#x09;" horiz-adv-x="500" />
<glyph unicode="&#xa0;" horiz-adv-x="500" />
<glyph unicode="!" horiz-adv-x="527" d="M217 0v121h86v-121h-86zM235 430v880h49v-880h-49z" />
<glyph unicode="&#x22;" horiz-adv-x="639" d="M193 1010l40 241v153h50v-150l-45 -244h-45zM356 1010l41 241v153h49v-150l-45 -244h-45z" />
<glyph unicode="#" horiz-adv-x="1139" d="M59 369v47h252l86 471h-270v49h279l67 374h51l-69 -374h329l68 374h51l-69 -374h229v-49h-238l-86 -471h256v-47h-264l-68 -369h-50l67 369h-327l-67 -369h-50l66 369h-243zM362 416h327l86 471h-329z" />
<glyph unicode="$" d="M114 342l2 5h42q0 -87 29 -153.5t80 -106.5q101 -79 260 -79l1 -2q144 0 234.5 81.5t90.5 199t-70.5 185.5t-263.5 137q-203 67 -285 144.5t-82 222.5t94 234t254 96v168h49v-168q164 -9 254 -108.5t87 -273.5l-2 -4h-42q0 153 -86.5 246t-237.5 93t-236 -80t-85 -201 q0 -82 27 -135t99 -97.5t208 -88.5q101 -35 165 -67t112 -74.5t69 -96.5t21 -128q0 -145 -92.5 -233t-250.5 -97v-169h-50v168q-176 6 -285 96q-54 46 -83 118.5t-27 167.5z" />
<glyph unicode="%" horiz-adv-x="1374" d="M103 987v69q0 116 68.5 193.5t175.5 77.5t175.5 -77.5t68.5 -193.5v-69q0 -114 -68.5 -191.5t-175.5 -77.5t-175.5 77t-68.5 192zM152 987q0 -95 52.5 -157.5t143 -62.5t142.5 63t52 157v69q0 95 -52 158.5t-142 63.5t-143 -64.5t-53 -157.5v-69zM375 144l640 1024 l41 -28l-640 -1024zM783 249v70q0 115 68.5 192.5t176 77.5t176 -77t68.5 -193v-70q0 -115 -68.5 -192.5t-175.5 -77.5t-176 77.5t-69 192.5zM833 249q0 -96 51.5 -158t142.5 -62t143 62.5t52 157.5v70q0 99 -51.5 160t-143 61t-143 -61.5t-51.5 -159.5v-70z" />
<glyph unicode="&#x26;" horiz-adv-x="1122" d="M103 315q0 98 57 184.5t173 184.5l46 37q-76 94 -110 170t-34 157q0 134 72.5 206.5t196 72.5t189 -63.5t65.5 -172.5q0 -72 -32.5 -124t-100.5 -107l-181 -145l427 -486q104 145 104 337h49q0 -209 -120 -375l167 -190l-2 -4h-54l-141 159q-4 -3 -11 -10 q-85 -85 -173 -126t-197 -41q-183 0 -286.5 90t-103.5 246zM151 315q0 -126 90.5 -206.5t251.5 -80.5q100 0 190.5 42.5t158.5 121.5q-405 459 -416 472.5t-17 21.5l-47 -37q-117 -102 -163.5 -180t-46.5 -154h-1zM285 1050q0 -148 131 -301l188 149q104 87 104 193 q0 87 -51 137.5t-152 50.5t-160.5 -64t-59.5 -165z" />
<glyph unicode="'" horiz-adv-x="476" d="M193 1010l40 240v154h50v-152l-45 -242h-45z" />
<glyph unicode="(" horiz-adv-x="716" d="M218 509v19q0 304 107.5 569t262.5 358h5l15 -32q-140 -93 -240.5 -351.5t-100.5 -540.5v-23q0 -284 100 -541.5t241 -350.5l-15 -33h-5q-159 97 -264.5 355t-105.5 571z" />
<glyph unicode=")" horiz-adv-x="731" d="M110 -385q140 93 240.5 351t100.5 541v23q0 282 -100.5 540.5t-240.5 351.5l15 32h5q101 -61 185.5 -201.5t134.5 -333t50 -392.5v-19q0 -312 -106 -570.5t-264 -355.5h-5z" />
<glyph unicode="*" horiz-adv-x="770" d="M27 1093l16 49l326 -120l1 355h50l-6 -356l317 129l18 -48l-324 -123l224 -286l-42 -29l-218 290l-205 -293l-41 29l211 291z" />
<glyph unicode="+" horiz-adv-x="1036" d="M66 599v47h416v454h49v-454h433v-47h-433v-453h-49v453h-416z" />
<glyph unicode="," horiz-adv-x="345" d="M103 -258l60 221v154h49v-150l-63 -225h-46z" />
<glyph unicode="-" horiz-adv-x="546" d="M55 599v49h423v-49h-423z" />
<glyph unicode="." horiz-adv-x="395" d="M156 0v117h77v-117h-77z" />
<glyph unicode="/" horiz-adv-x="704" d="M38 -125l547 1423h53l-547 -1423h-53z" />
<glyph unicode="0" horiz-adv-x="1050" d="M126 515v277q0 256 104 395.5t295 139.5t295 -139.5t104 -395.5v-277q0 -258 -103.5 -397t-294.5 -139t-295.5 139.5t-104.5 396.5zM175 516q0 -230 91 -359t260.5 -129t259.5 128.5t90 359.5v276q0 232 -90.5 359.5t-260.5 127.5t-260 -127.5t-90 -359.5v-276z" />
<glyph unicode="1" d="M186 1199v42l407 75v-1329h-48v1283z" />
<glyph unicode="2" d="M111 947q-5 163 101 272.5t275.5 109.5t266.5 -92.5t97 -259.5q0 -102 -64 -211t-206 -275l-375 -438l2 -4h714v-49h-784v49l429 495q124 144 179.5 245t55.5 188q0 146 -79.5 225t-235 79t-244.5 -93t-89 -247h-41z" />
<glyph unicode="3" d="M98 357l2 5h41q0 -145 106.5 -239.5t269 -94.5t252 82.5t89.5 232t-100 224t-283 74.5h-100l1 51h100q162 0 258 80.5t96 202.5q0 138 -83 221t-235 83t-247 -86t-95 -228h-41l-2 6q-5 157 104.5 256.5t278.5 99.5t269 -95.5t100 -259.5q0 -104 -65 -185.5t-177 -117.5 q130 -32 200 -115t70 -209q0 -170 -107 -268t-283 -98q-114 0 -209 43t-153.5 130.5t-56.5 204.5z" />
<glyph unicode="4" d="M74 357v27l625 926h59v-904h227v-49h-227v-357h-49v357h-635zM149 406h560v836l-5 2l-70 -116z" />
<glyph unicode="5" d="M169 337l2 6h42q0 -154 85 -234.5t237 -80.5q174 0 255.5 95t81.5 291q0 167 -81.5 261.5t-226 94.5t-227 -47t-119.5 -144l-37 15l70 714h621v-47h-577l-55 -557q61 61 129 88t193 30q158 5 259 -107t101 -309t-96.5 -312t-290.5 -115q-167 0 -268.5 93t-97.5 265z" />
<glyph unicode="6" d="M153 459v403q0 203 117 334t291 131q152 0 256 -63l-19 -46q-59 35 -109.5 48t-127.5 13q-154 0 -256.5 -115.5t-102.5 -300.5v-230q43 101 136.5 163.5t214.5 62.5q176 0 277.5 -121t101.5 -317t-109.5 -319t-280.5 -123t-280 131.5t-109 348.5zM202 460 q0 -195 94.5 -314t245 -119t246 111.5t95.5 273.5q0 186 -87.5 292.5t-249.5 106.5q-139 0 -241 -92.5t-102 -220.5h-1v-38z" />
<glyph unicode="7" d="M69 1262v48h837l1 -48q-207 -241 -336.5 -530t-168.5 -651l-5 -82h-49l6 82q75 687 494 1181h-779z" />
<glyph unicode="8" d="M88 339q0 120 75 208t203 121q-111 35 -176 116.5t-65 190.5q0 164 104.5 258t274.5 94q169 0 275 -94.5t106 -257.5q0 -108 -66 -190t-177 -117q128 -35 204.5 -123t76.5 -206q0 -170 -114.5 -265t-303.5 -95t-303 94.5t-114 265.5zM136 332.5q0 -140.5 102 -222.5 t266 -82t266.5 82.5t102.5 222t-105 225.5t-265 86t-263.5 -85.5t-103.5 -226zM173 982q0 -133 92 -211t238.5 -78t239.5 78.5t93 208t-95.5 214.5t-239.5 85t-236 -82t-92 -215z" />
<glyph unicode="9" d="M86 883q0 184 111 314t286.5 130t284 -121t108.5 -341v-453q0 -202 -112.5 -317.5t-302.5 -115.5q-139 0 -282 57l15 50q68 -32 128.5 -45.5t138.5 -13.5q167 0 263 101.5t96 280.5v255q-50 -99 -142.5 -154.5t-206.5 -55.5q-167 0 -276 122.5t-109 306.5zM141 881.5 q0 -161.5 91.5 -270t238.5 -108.5q128 0 219.5 73.5t129.5 187.5v100q0 197 -92 306t-243.5 109t-247.5 -118t-96 -279.5zM193 86l1 1v-1h-1z" />
<glyph unicode=":" horiz-adv-x="328" d="M116 0v105h70v-105h-70zM116 854v105h70v-105h-70z" />
<glyph unicode=";" horiz-adv-x="328" d="M94 -258l54 199v138h44v-135l-57 -202h-41zM122 831v105h70v-105h-70z" />
<glyph unicode="&#x3c;" horiz-adv-x="948" d="M74 477v45l753 340v-52l-595 -277l-107 -33v-6l107 -32l595 -273v-53z" />
<glyph unicode="=" horiz-adv-x="1028" d="M132 436v49h751v-49h-751zM132 802v49h751v-49h-751z" />
<glyph unicode="&#x3e;" horiz-adv-x="948" d="M103 137v53l594 276l106 33v5l-106 34l-594 273v52l752 -340v-45z" />
<glyph unicode="?" horiz-adv-x="934" d="M154 1010q-2 150 84.5 234.5t231.5 84.5t230.5 -90t85.5 -240q0 -122 -53 -213.5t-175 -200.5q-59 -46 -74 -87t-15 -138l-47 1q1 108 18.5 151.5t93.5 112.5q62 59 94.5 95t61 81t38.5 91.5t10 109.5q0 133 -70 207t-198 74t-198.5 -75t-73.5 -204h-41zM419 1v95h74v-95 h-74z" />
<glyph unicode="@" horiz-adv-x="1712" d="M115.5 382.5q16.5 388.5 229.5 615.5t556 227l1 -1q359 0 532 -207t157 -593q-13 -289 -174 -421q-83 -68 -195 -68q-74 0 -121 55t-55 152q-100 -207 -299 -207q-122 0 -182 106t-43 287q21 226 129 362t265 136q69 0 115 -22t109 -77l-45 -509q-8 -125 29.5 -179 t100.5 -54q140 0 222 118.5t92 321.5q18 365 -140.5 556.5t-501.5 191.5q-151 0 -281.5 -56.5t-227 -158t-155 -249t-67.5 -324.5q-12 -231 61.5 -409t227 -279t364.5 -101q78 0 159 20t138 52l22 -41q-55 -35 -146.5 -57.5t-176.5 -22.5q-343 0 -529.5 223.5t-170 612z M570 328q-18 -154 28.5 -249.5t148.5 -95.5t176.5 63.5t125.5 217.5l37 438q-62 73 -173 73q-134 0 -227 -116t-116 -331z" />
<glyph unicode="A" horiz-adv-x="1101" d="M31 0l489 1310h60l490 -1310h-53l-147 392h-640l-146 -392h-53zM248 440h604l-274 738l-25 74h-6l-24 -74z" />
<glyph unicode="B" horiz-adv-x="1112" d="M180 -1v1310h345q207 0 317.5 -84t110.5 -251q0 -119 -60.5 -198t-169.5 -99q123 -16 206.5 -106.5t83.5 -209.5q0 -170 -109.5 -265.5t-295.5 -95.5zM229 48h379q167 0 261.5 81.5t94.5 228.5q0 125 -93 206.5t-254 81.5h-388v-598zM229 695h314q181 0 271 69.5 t90 212.5q0 284 -379 284h-296v-566z" />
<glyph unicode="C" horiz-adv-x="1194" d="M130 555v196q0 260 129.5 418t342 158t335.5 -108q120 -105 120 -296v-9l-2 -5h-42q0 176 -109 273t-301 97t-308.5 -144.5t-116.5 -381.5v-198q0 -239 116.5 -383t310 -144t301 94t107.5 277h42l2 -5v-9q1 -192 -119 -298q-122 -108 -335.5 -108t-343 158t-129.5 418z " />
<glyph unicode="D" horiz-adv-x="1206" d="M180 0v1310h363q150 0 273.5 -73t195.5 -205t72 -297v-160q0 -166 -72 -298t-195.5 -204.5t-273.5 -72.5h-363zM229 48h314q207 0 349.5 149.5t142.5 376.5v163q0 148 -66 269t-178.5 188.5t-247.5 67.5l-314 -1v-1213z" />
<glyph unicode="E" horiz-adv-x="1049" d="M180 0v1310h797v-48h-748v-555h657v-48h-657v-610h748v-49h-797z" />
<glyph unicode="F" horiz-adv-x="1055" d="M180 0v1310h812v-48h-763v-567h671v-51h-671v-644h-49z" />
<glyph unicode="G" horiz-adv-x="1265" d="M149 556v214q0 248 135.5 402.5t348.5 154.5t336 -106t125 -279l-1 -5h-41q-7 157 -113.5 249.5t-301.5 92.5t-316 -140.5t-121 -366.5v-216q0 -236 125 -382t331 -146q138 0 248.5 40t150.5 93v381h-401v50h449l-1 -454q-46 -63 -166.5 -111t-280.5 -48 q-226 0 -366 159.5t-140 417.5z" />
<glyph unicode="H" horiz-adv-x="1294" d="M180 0v1310h49v-636h837v636h48v-1310h-48v626h-837v-626h-49z" />
<glyph unicode="I" horiz-adv-x="481" d="M216 0v1310h49v-1310h-49z" />
<glyph unicode="J" horiz-adv-x="1013" d="M86 353l2 6h42q0 -161 87 -246t252 -85q141 0 230 95t89 255v930h49v-930q0 -182 -102 -290.5t-266 -108.5q-184 0 -285 97q-98 92 -98 263v14z" />
<glyph unicode="K" horiz-adv-x="1170" d="M180 0v1310h49v-622h214l556 622h58l1 -4l-575 -649l617 -652l-3 -5h-57l-611 640h-200v-640h-49z" />
<glyph unicode="L" horiz-adv-x="951" d="M180 0v1310h50v-1261h672v-49h-722z" />
<glyph unicode="M" horiz-adv-x="1580" d="M180 0v1310h69l537 -1233h5l538 1233h71v-1310h-48v1225l-6 2l-538 -1227h-38l-536 1220l-5 -1v-1219h-49z" />
<glyph unicode="N" horiz-adv-x="1304" d="M180 0v1310h50l840 -1217l6 2v1215h48v-1310h-48l-841 1220l-5 -1v-1219h-50z" />
<glyph unicode="O" horiz-adv-x="1228" d="M120 555v196q0 268 131 422t361.5 154t363 -154.5t132.5 -421.5v-196q0 -267 -131.5 -421.5t-362.5 -154.5t-362.5 154t-131.5 422zM169 555q0 -247 116.5 -387t329.5 -140t328.5 139.5t115.5 387.5v198q0 245 -116.5 385.5t-329 140.5t-328.5 -140.5t-116 -385.5v-198z " />
<glyph unicode="P" horiz-adv-x="1107" d="M180 0v1310h410q201 0 312 -100.5t111 -273.5t-110.5 -273t-312.5 -100h-361v-563h-49zM229 611h361q181 0 277.5 89.5t96.5 236t-96 236t-278 89.5h-361v-651z" />
<glyph unicode="Q" horiz-adv-x="1228" d="M120 537v196q0 268 131 422t361.5 154t363 -154.5t132.5 -421.5v-196q0 -164 -51.5 -288.5t-148.5 -196.5l229 -224l-35 -31l-236 226q-105 -62 -251 -62q-232 0 -363.5 154t-131.5 422zM169 537q0 -247 116.5 -387.5t329.5 -140.5t328.5 140t115.5 388v198 q0 245 -116.5 385t-329 140t-328.5 -140t-116 -385v-198z" />
<glyph unicode="R" horiz-adv-x="1206" d="M176 -3v1310h417q209 0 319.5 -89.5t110.5 -261.5q0 -113 -71.5 -202t-191.5 -115q138 -23 200.5 -100.5t62.5 -205.5v-123q0 -133 64 -189v-23h-47q-65 74 -65 214v120q0 134 -91.5 208.5t-260.5 74.5l-399 -2v-616h-48zM224 663h360q194 0 292.5 81t98.5 222t-96 218 t-286 77h-369v-598z" />
<glyph unicode="S" horiz-adv-x="1101" d="M95 362l1 5h41q0 -87 35 -153.5t96 -105.5q124 -80 304 -80l-1 1q173 0 284 79t111 203.5t-89.5 198t-314.5 135.5q-119 31 -196 62.5t-132.5 73.5t-80 96.5t-24.5 128.5q0 146 120.5 233.5t313.5 87.5t314 -107q117 -104 117 -264v-11l-1 -6h-42q0 149 -108 244.5 t-281.5 95.5t-279 -78t-105.5 -193t88 -187.5t310 -129.5q114 -31 192.5 -63.5t136.5 -77.5q111 -86 111 -238t-124.5 -242.5t-319.5 -90.5q-206 0 -339 91q-68 46 -104 121q-34 69 -33 157v14z" />
<glyph unicode="T" horiz-adv-x="1102" d="M50 1262v48h1002v-48h-477v-1262h-48v1262h-477z" />
<glyph unicode="U" horiz-adv-x="1229" d="M166 420v888h48v-888q0 -183 110 -287.5t289.5 -104.5t289.5 105t110 287v888h48v-888q0 -211 -121 -326t-326.5 -115t-326.5 115.5t-121 325.5z" />
<glyph unicode="V" horiz-adv-x="1101" d="M32 1310h53l440 -1182l23 -71h6l23 71l440 1182h53l-489 -1310h-60z" />
<glyph unicode="W" horiz-adv-x="1670" d="M55 1310h54l328 -1219h6l57 206l309 1013h54l308 -1013l56 -206h5l59 206l270 1013h53l-353 -1310h-55l-325 1093l-43 130h-5l-42 -130l-327 -1093h-55z" />
<glyph unicode="X" horiz-adv-x="1101" d="M48 0l471 669l-453 641h61l422 -603l424 603h60l-452 -641l471 -669h-60l-443 631l-442 -631h-59z" />
<glyph unicode="Y" horiz-adv-x="1101" d="M32 1310h60l433 -728l23 -45l24 45l435 728h60l-493 -812v-498h-49v498z" />
<glyph unicode="Z" horiz-adv-x="1102" d="M85 0v40l836 1223h-800v47h867v-34l-837 -1227h866v-49h-932z" />
<glyph unicode="[" horiz-adv-x="565" d="M248 -281v1779h255v-49h-207v-1681h207v-49h-255z" />
<glyph unicode="\" horiz-adv-x="697" d="M51 1298h53l547 -1423h-52z" />
<glyph unicode="]" horiz-adv-x="565" d="M78 -232h205v1681h-205v49h254v-1779h-254v49z" />
<glyph unicode="^" horiz-adv-x="764" d="M82 729l269 654h47l269 -654h-55l-200 489l-36 102h-5l-39 -102l-197 -489h-53z" />
<glyph unicode="_" horiz-adv-x="761" d="M-1 -5h762v-49h-762v49z" />
<glyph unicode="`" horiz-adv-x="483" d="M93 1445l2 4h80l198 -234l-2 -5h-68z" />
<glyph unicode="a" horiz-adv-x="973" d="M84 250q0 125 115.5 207.5t289.5 82.5h278v142q0 122 -78 189.5t-214.5 67.5t-217 -63.5t-80.5 -164.5l-41 1l-2 5v12q0 107 89 181q94 78 250 78t249 -80t93 -228v-488q0 -111 25 -195h-54q-20 108 -20 166l1 13q-52 -92 -153 -145.5t-238 -53.5t-214.5 74t-77.5 199z M131 252q0 -101 67 -163t176 -62q144 0 244 63.5t148 182.5v219h-275q-153 0 -256.5 -69.5t-103.5 -170.5z" />
<glyph unicode="b" d="M153 -2v1404h49v-604q49 91 133.5 141.5t196.5 50.5q172 0 269.5 -135t97.5 -369v-18q0 -227 -97 -358t-268 -131q-113 0 -199 45.5t-135 126.5l-6 -153h-41zM202 240q37 -99 122 -155t211 -56q152 0 233 116.5t81 322.5v19q0 208 -82.5 331.5t-233.5 123.5 q-253 0 -331 -246v-456z" />
<glyph unicode="c" horiz-adv-x="935" d="M87 466v38q0 221 106 353.5t290 132.5q157 0 259 -91q99 -88 99 -239v-9l-2 -5h-42q0 139 -88.5 217t-225.5 78q-167 0 -257 -119t-90 -318v-38q0 -201 89.5 -319.5t259.5 -118.5q132 0 222 70.5t90 199.5h42l2 -6v-8q-1 -134 -103 -218q-106 -87 -253 -87 q-185 0 -291.5 132.5t-106.5 354.5z" />
<glyph unicode="d" d="M110 485q0 234 97 369t270 135q112 0 196 -50.5t135 -141.5v604h49v-1404h-47l-2 151q-49 -80 -134 -125t-198 -45q-172 0 -268.5 130.5t-96.5 358.5zM160 486l1 -19q0 -206 81 -322.5t233 -116.5q125 0 209.5 56t123.5 155v456q-82 246 -332 246q-152 0 -234 -123 t-82 -332z" />
<glyph unicode="e" horiz-adv-x="929" d="M78 448v58q0 209 116.5 346.5t286.5 137.5t273 -108t103 -290v-75h-730v-69q0 -178 103.5 -299t256.5 -121q108 0 181.5 29t126.5 89l26 -37q-118 -130 -334 -130q-170 0 -289.5 135t-119.5 334zM134 571l3 -5h671v30h-1q0 150 -90 247.5t-234 97.5t-240 -104t-109 -266z " />
<glyph unicode="f" horiz-adv-x="581" d="M60 924v50h170v160q0 138 66.5 213.5t187.5 75.5q67 0 116 -15l-8 -47q-55 13 -108 13q-98 0 -152.5 -63.5t-54.5 -176.5v-160h258v-50h-258v-924h-47v924h-170z" />
<glyph unicode="g" d="M108 443q0 234 97 369t270 135q226 0 331 -192l8 174h41v-979q0 -186 -96.5 -287t-263 -101t-291.5 56l15 48q128 -56 266 -56q158 0 239.5 87t81.5 253v155q-51 -80 -136 -124.5t-196 -44.5q-172 0 -268.5 130.5t-96.5 358.5zM158 425q0 -205 81.5 -322t233.5 -117 q125 0 209.5 55.5t123.5 154.5v461q-85 243 -331 243q-153 0 -235 -123.5t-82 -332.5v-19z" />
<glyph unicode="h" d="M155 0v1404h48v-635q46 108 133.5 165.5t212.5 57.5q155 0 232.5 -97.5t77.5 -302.5v-592h-50v594q0 185 -67 267t-192 82q-152 0 -238 -89.5t-109 -245.5v-608h-48z" />
<glyph unicode="i" horiz-adv-x="380" d="M167 0v974h48v-974h-48zM167 1280v124h48v-124h-48z" />
<glyph unicode="j" horiz-adv-x="401" d="M-141 -419l11 47q46 -16 89 -16q100 0 154 68.5t54 195.5v1054h50v-1054q0 -150 -67 -231.5t-190 -81.5q-44 0 -101 18zM162 1240v120h49v-120h-49z" />
<glyph unicode="k" horiz-adv-x="872" d="M155 0v1404h48v-858h115l443 428h56l2 -6l-446 -438l480 -525l-2 -5h-56l-458 498h-134v-498h-48z" />
<glyph unicode="l" horiz-adv-x="380" d="M167 0v1404h48v-1404h-48z" />
<glyph unicode="m" horiz-adv-x="1652" d="M145 0v974h41l7 -201q93 219 328 219q256 0 313 -263q40 127 127.5 195.5t218.5 68.5q164 0 246 -106.5t82 -330.5v-555h-49v557q0 204 -71.5 295t-213.5 91t-223.5 -89t-101.5 -245l1 -56v-554h-49v557q0 205 -72 295.5t-211.5 90.5t-220 -84t-103.5 -234v-625h-49z" />
<glyph unicode="n" d="M155 0v974h41l7 -201q92 219 337 219q162 0 240.5 -101t78.5 -318v-573h-49v575q0 196 -69 282t-200 86q-152 0 -234.5 -89t-103.5 -246v-608h-48z" />
<glyph unicode="o" d="M78 466v38q0 216 118.5 351t308.5 135t308 -135t118 -351v-38q0 -216 -118 -351.5t-308 -135.5t-308.5 135.5t-118.5 351.5zM127 466q0 -189 104 -313.5t275 -124.5q112 0 198.5 58.5t132 157.5t45.5 222v38q0 184 -105 310.5t-273 126.5q-112 0 -199 -59.5 t-132.5 -158.5t-45.5 -219v-38z" />
<glyph unicode="p" d="M153 -416v1348h38l10 -174q102 192 331 192q172 0 269.5 -135t97.5 -369v-18q0 -227 -97 -357.5t-268 -130.5q-114 0 -199 44.5t-133 125.5v-526h-49zM202 201q37 -101 122 -157t211 -56q152 0 233.5 117t81.5 322v19q0 209 -83 332.5t-234 123.5q-134 0 -214.5 -66.5 t-116.5 -179.5v-455z" />
<glyph unicode="q" d="M110 427v18q0 235 97 369.5t270 134.5q226 0 331 -192l5 174h44v-1348h-49v526q-50 -81 -135 -125.5t-198 -44.5q-172 0 -268.5 130t-96.5 358zM160 445l1 -19q0 -205 81 -322t233 -117q125 0 210 56t123 156v456q-83 246 -332 246q-153 0 -234.5 -123.5t-81.5 -332.5z " />
<glyph unicode="r" horiz-adv-x="612" d="M156 0v974h39l9 -169v-34q86 221 318 221q34 0 68 -10l-5 -43l-63 5q-128 0 -210 -82t-108 -224v-638h-48z" />
<glyph unicode="s" horiz-adv-x="917" d="M101 240l2 5h39q4 -74 49 -124q84 -93 267 -93l-1 -1q131 0 212.5 61t81.5 147q0 176 -297 241q-179 39 -254.5 97.5t-75.5 167.5t89.5 179t243.5 70t247 -75q89 -72 89 -188v-10l-2 -5h-41q0 98 -82 163.5t-215.5 65.5t-206 -56.5t-72.5 -138.5t63 -134t232.5 -91.5 t250 -105t80.5 -180.5t-93.5 -185.5t-254.5 -70.5q-161 1 -259 75q-92 70 -92 173v13z" />
<glyph unicode="t" horiz-adv-x="570" d="M26 922v50h180v263h50v-263h239v-50h-239v-673q0 -221 147 -221q44 0 97 8l9 -44q-37 -13 -103 -13q-100 0 -150 65t-50 205v673h-180z" />
<glyph unicode="u" d="M151 416v556h49v-557q0 -194 71 -290.5t199 -96.5q148 0 231 71.5t106 200.5v672h50v-974h-41l-7 175q-96 -194 -337 -194q-155 0 -238 108.5t-83 328.5z" />
<glyph unicode="v" horiz-adv-x="880" d="M39 974h52l301 -768l45 -131h6l47 131l299 768h53l-379 -973l1 -1h-47z" />
<glyph unicode="w" horiz-adv-x="1395" d="M75 974h56l198 -692l51 -200l5 -1l283 893h49l281 -893l6 1l52 200l198 692h56l-283 -974h-49l-240 732l-43 164h-6l-46 -164l-237 -732h-49z" />
<glyph unicode="x" horiz-adv-x="880" d="M50 0l360 500l-342 474h61l311 -432l311 432h61l-342 -474l360 -500h-60l-331 457l-329 -457h-60z" />
<glyph unicode="y" horiz-adv-x="880" d="M39 930h53l320 -797l36 -97h6l342 894h54l-433 -1136q-23 -59 -42.5 -95t-49.5 -70.5t-71 -50t-90.5 -15.5t-75.5 10l8 46q26 -8 61 -8q79 0 126 45.5t85 146.5l59 159z" />
<glyph unicode="z" horiz-adv-x="880" d="M78 0v40l640 884h-612v50h678v-43l-640 -882h693v-49h-759z" />
<glyph unicode="{" horiz-adv-x="764" d="M151 487v59q225 0 225 248v223q0 161 67.5 265.5t219.5 152.5l13 -40q-127 -41 -189.5 -138t-62.5 -239v-223q0 -111 -47.5 -183t-142.5 -95q95 -23 142.5 -95.5t47.5 -184.5v-220q0 -284 257 -373l-18 -43q-152 49 -219.5 152t-67.5 263v220q0 251 -225 251z" />
<glyph unicode="|" horiz-adv-x="535" d="M248 -243v1553h48v-1553h-48z" />
<glyph unicode="}" horiz-adv-x="764" d="M85 -354q256 89 256 373v220q0 112 47 184.5t142 95.5q-189 45 -189 278v223q0 142 -62.5 239t-189.5 138l13 40q151 -48 219 -152.5t68 -265.5v-223q0 -248 225 -248v-59q-113 0 -169 -65t-56 -186v-220q0 -160 -67.5 -263t-219.5 -152z" />
<glyph unicode="~" horiz-adv-x="1271" d="M140 471q0 116 66.5 193t169.5 77q75 0 139 -33t152 -111q113 -106 221 -106q80 0 131.5 64t51.5 167l57 -13q0 -111 -68 -189t-170 -78q-77 0 -141 33t-149 111q-122 106 -224 106q-82 0 -132 -62t-50 -170z" />
<glyph unicode="&#xa1;" horiz-adv-x="365" d="M128 907.5q0 20.5 15 35t35.5 14.5t35 -14.5t14.5 -35t-14.5 -35.5t-35 -15t-35.5 15t-15 35.5zM161 -359v950h49v-950h-49z" />
<glyph unicode="&#xa2;" horiz-adv-x="999" d="M120 449v32q0 216 100 346t273 139v196h50v-196q148 -9 238.5 -100t96.5 -238h-48q-7 132 -92 211.5t-221 79.5q-164 0 -256 -117t-92 -327v-31h-2q0 -206 93 -322t256 -116q135 0 220 71t93 194h48q-7 -134 -100 -219.5t-234 -93.5v-203h-50v203q-173 9 -273 139.5 t-100 351.5z" />
<glyph unicode="&#xa3;" horiz-adv-x="1035" d="M86 600v49h188l-8 286q0 184 88.5 288.5t243 104.5t244.5 -93t90 -255h-49q0 143 -76 221.5t-210.5 78.5t-208.5 -90t-74 -255l8 -286h333v-49h-331l9 -298q4 -175 -60 -253h681l1 -49h-866v49h108q43 12 66 83t21 170l-9 298h-189z" />
<glyph unicode="&#xa4;" horiz-adv-x="1352" d="M104 10l161 164q-130 158 -130 376t139 376l-170 174l36 35l169 -173q153 146 363 146t361 -148l172 176l37 -36l-174 -177q137 -159 137 -374.5t-127 -372.5l164 -167l-37 -36l-161 167q-155 -160 -373 -160t-373 157l-158 -162zM184 546q0 -139 65.5 -259t178 -189 t242.5 -69t242 68.5t178.5 191.5t66.5 259.5t-65.5 255.5t-178.5 188.5t-242 69.5t-242 -70l-1 -1q-114 -69 -179 -187.5t-65 -257.5z" />
<glyph unicode="&#xa5;" horiz-adv-x="1086" d="M52 1310h59l407 -646l21 -46h5l21 46l406 646h60l-441 -702h382v-49h-407v-216h407v-50h-407v-293h-48v293h-405v50h405v216h-405v49h379z" />
<glyph unicode="&#xa6;" horiz-adv-x="358" d="M155 -270v677h48v-677h-48zM155 601v682h48v-682h-48z" />
<glyph unicode="&#xa7;" horiz-adv-x="1101" d="M104 -108l48 2q0 -162 103.5 -251.5t276.5 -89.5t268.5 71t95.5 190q0 78 -32.5 126.5t-110.5 87t-207 72.5q-241 58 -339 137t-98 209q0 98 68.5 162t188.5 82q-115 46 -166 112t-51 165q0 142 110.5 227t301 85t297.5 -101t107 -287h-49q0 152 -98 245.5t-263.5 93.5 t-261 -69t-95.5 -192q0 -81 32 -129.5t107 -87.5q83 -40 217 -78q184 -46 266.5 -87.5t124.5 -102.5v-2q40 -59 40 -149.5t-73.5 -154.5t-200.5 -82q127 -47 180.5 -112.5t53.5 -168.5q0 -144 -109 -227.5t-305 -83.5t-311.5 101.5t-115.5 286.5zM159 455.5 q0 -90.5 34.5 -139.5t121.5 -88t309 -101q141 2 226.5 59.5t85.5 149.5q0 76 -36.5 126t-118.5 90.5t-250 87.5q-60 13 -96 27q-130 -5 -203 -63t-73 -148.5z" />
<glyph unicode="&#xa8;" horiz-adv-x="815" d="M166 1416q0 21 14 35.5t35 14.5t36 -15t15 -35.5t-15 -35t-36 -14.5t-35 14.5t-14 35.5zM566 1415.5q0 20.5 14.5 35.5t35 15t35.5 -15t15 -35.5t-15 -35t-35.5 -14.5t-35 14.5t-14.5 35z" />
<glyph unicode="&#xa9;" horiz-adv-x="1499" d="M111 654q0 187 84.5 341.5t231 242.5t322.5 88t323 -88t232 -242.5t85 -341.5q0 -140 -50.5 -265.5t-136 -215t-203.5 -142t-249 -52.5t-249.5 52.5t-204 142t-135.5 215t-50 265.5zM161 654q0 -129 46.5 -245t125 -199t187.5 -132t230 -49q160 0 295 82.5t214 226.5 t79 315.5t-78.5 315t-213.5 226t-296 82.5t-296.5 -82.5t-214 -226t-78.5 -314.5zM455 600v107q0 156 79.5 252t208 96t198.5 -72t67 -204l-3 -5h-39q0 116 -57 175t-166 59t-173.5 -84t-64.5 -216v-108q0 -133 64 -216t174 -83q222 0 222 233h39l3 -5q3 -134 -66.5 -205.5 t-198.5 -71.5t-208 95.5t-79 252.5z" />
<glyph unicode="&#xaa;" horiz-adv-x="808" d="M151 1187q0 92 73 151t184.5 59t172.5 -65.5t61 -183.5v-284q0 -80 23 -160l-51 -1q-17 48 -21 106q-35 -54 -94 -86.5t-123 -32.5q-108 0 -166 50.5t-58 143.5t75.5 148t211.5 55h153v62q0 96 -45 147.5t-140 51.5t-151 -40t-56 -121h-49zM200 883h1q0 -142 176 -142 q63 0 129.5 42t84.5 95v161h-150q-241 0 -241 -156z" />
<glyph unicode="&#xab;" horiz-adv-x="815" d="M121 479v17l266 333h63l-265 -342l265 -341h-63zM408 479v17l266 333h63l-265 -342l265 -341h-63z" />
<glyph unicode="&#xac;" horiz-adv-x="991" d="M110 670v47h714v-321h-49v274h-665z" />
<glyph unicode="&#xad;" horiz-adv-x="546" d="M49 599v49h423v-49h-423z" />
<glyph unicode="&#xae;" horiz-adv-x="1507" d="M104 656q0 183 84 338t233 245q150 89 322 89t322 -89q150 -91 234 -246t84 -337t-82 -336.5t-231.5 -248t-326.5 -93.5t-326.5 93.5t-231 247.5t-81.5 337zM153 654q0 -168 78 -311.5t215 -229.5q138 -84 296.5 -84t295 84t215 228.5t78.5 313t-77.5 311t-215.5 227 t-296 84.5t-294.5 -83.5t-216.5 -227.5q-78 -144 -78 -312zM534 292v747h215q260 0 260 -216q0 -129 -138 -186q119 -36 119 -187q0 -96 15 -144v-15h-53q-12 34 -12 159q0 84 -35 120t-119 38l-203 1v-317h-49zM583 659h185q86 0 138.5 45t52.5 126t-45.5 119t-152.5 40 h-178v-330z" />
<glyph unicode="&#xaf;" horiz-adv-x="730" d="M83 1403v48h564v-48h-564z" />
<glyph unicode="&#xb0;" horiz-adv-x="705" d="M140 1212q0 89 62.5 152.5t149.5 63.5t148.5 -63.5t61.5 -152t-61.5 -151t-149 -62.5t-149.5 62t-62 151zM190 1212.5q0 -70.5 46 -117t116 -46.5t114.5 45.5t44.5 118.5t-45 119.5t-114 46.5t-115.5 -48t-46.5 -118.5z" />
<glyph unicode="&#xb1;" horiz-adv-x="969" d="M65 676v48h399v416h48v-416h377v-48h-377v-416h-48v416h-399zM110 -1v49h751v-49h-751z" />
<glyph unicode="&#xb4;" horiz-adv-x="460" d="M113 1250l171 239h59l-176 -239h-54z" />
<glyph unicode="&#xb5;" d="M154 -416v1348h47v-595q5 -348 275 -348q160 0 240 81.5t93 260.5v601h49v-974h-46l-3 183q-87 -201 -325 -201q-203 0 -283 172v-528h-47z" />
<glyph unicode="&#xb6;" horiz-adv-x="851" d="M89 889q0 193 119.5 307t325.5 114h159v-1310h-49v468h-114q-135 0 -235 51.5t-153 148.5t-53 221z" />
<glyph unicode="&#xb7;" horiz-adv-x="425" d="M161 700.5q0 20.5 14.5 35.5t35 15t35.5 -15t15 -35.5t-15 -35t-35.5 -14.5t-35 14.5t-14.5 35z" />
<glyph unicode="&#xb8;" horiz-adv-x="441" d="M73 -391q92 0 152.5 35.5t60.5 89.5t-35.5 78.5t-134.5 35.5l23 108l47 -1l-10 -68q160 -13 160 -151q0 -78 -68.5 -124.5t-188.5 -46.5z" />
<glyph unicode="&#xba;" horiz-adv-x="823" d="M133 995v101q0 136 75 218.5t199.5 82.5t199 -82.5t74.5 -223.5v-100q0 -136 -74.5 -218.5t-198.5 -82.5t-199.5 82t-75.5 223zM182 991q0 -119 60 -185.5t165.5 -66.5t166 68.5t60.5 186.5v102q0 115 -61.5 184t-165.5 69t-164.5 -68.5t-60.5 -189.5v-100z" />
<glyph unicode="&#xbb;" horiz-adv-x="807" d="M104 171l264 341l-264 351h63l265 -342v-17l-265 -333h-63zM394 171l264 341l-264 351h63l265 -342v-17l-265 -333h-63z" />
<glyph unicode="&#xbc;" horiz-adv-x="1320" d="M301 167l639 1024l41 -28l-640 -1024z" />
<glyph unicode="&#xbd;" horiz-adv-x="1357" d="M262 167l639 1024l41 -28l-640 -1024z" />
<glyph unicode="&#xbe;" horiz-adv-x="1427" d="M447 167l639 1024l41 -28l-640 -1024z" />
<glyph unicode="&#xbf;" horiz-adv-x="821" d="M96 -51q0 113 48.5 203.5t179.5 209.5q46 36 66.5 73t22.5 90l1 62l50 1q-2 -88 -10 -121.5t-29.5 -63t-74.5 -77.5l-70 -69q-71 -71 -102.5 -144t-31.5 -165q0 -134 70.5 -207t196.5 -73t197 73t75 203h48q-1 -151 -86.5 -237.5t-233 -86.5t-232.5 89.5t-85 239.5z M384 903.5q0 20.5 15 35t35.5 14.5t35 -14.5t14.5 -35t-14.5 -35.5t-35 -15t-35.5 15t-15 35.5z" />
<glyph unicode="&#xc0;" horiz-adv-x="1101" d="M28 0l489 1310h60l490 -1310h-53l-147 392h-640l-146 -392h-53zM245 440h604l-274 738l-25 74h-6l-24 -74zM342 1764l2 4h80l198 -234l-2 -5h-68z" />
<glyph unicode="&#xc1;" horiz-adv-x="1101" d="M28 0l489 1310h60l490 -1310h-53l-147 392h-640l-146 -392h-53zM245 440h604l-274 738l-25 74h-6l-24 -74zM556 1569l171 239h59l-176 -239h-54z" />
<glyph unicode="&#xc2;" horiz-adv-x="1101" d="M28 0l489 1310h60l490 -1310h-53l-147 392h-640l-146 -392h-53zM245 440h604l-274 738l-25 74h-6l-24 -74zM344 1583v13l207 215h36l210 -219v-9h-61l-168 176l-167 -176h-57z" />
<glyph unicode="&#xc3;" horiz-adv-x="1101" d="M28 0l489 1310h60l490 -1310h-53l-147 392h-640l-146 -392h-53zM245 440h604l-274 738l-25 74h-6l-24 -74zM289 1620q0 71 44.5 116t113.5 45q58 0 139 -55.5t124.5 -55.5t74 32t30.5 85h49q0 -73 -45 -120t-113 -47q-41 0 -90 28t-93.5 56.5t-75.5 28.5q-50 0 -79 -31 t-29 -82h-50z" />
<glyph unicode="&#xc4;" horiz-adv-x="1101" d="M28 0l489 1310h60l490 -1310h-53l-147 392h-640l-146 -392h-53zM245 440h604l-274 738l-25 74h-6l-24 -74zM325 1735q0 21 14 35.5t35 14.5t36 -15t15 -35.5t-15 -35t-36 -14.5t-35 14.5t-14 35.5zM725 1734.5q0 20.5 14.5 35.5t35 15t35.5 -15t15 -35.5t-15 -35 t-35.5 -14.5t-35 14.5t-14.5 35z" />
<glyph unicode="&#xc5;" horiz-adv-x="1101" d="M28 0l489 1310h60l490 -1310h-53l-147 392h-640l-146 -392h-53zM245 440h604l-274 738l-25 74h-6l-24 -74zM429 1684.5q0 66.5 45 111.5t109 45t108.5 -46t44.5 -111t-44 -109t-108.5 -44t-109.5 43.5t-45 110zM477 1685q0 -48 29.5 -76.5t76 -28.5t76 28.5t29.5 76.5 t-29.5 77.5t-76 29.5t-76 -29.5t-29.5 -77.5z" />
<glyph unicode="&#xc6;" horiz-adv-x="1634" d="M45 0l793 1310h698v-48h-626l23 -555h530v-48h-528l25 -610h631v-49h-677l-16 383h-564l-230 -383h-59zM363 430h533l-35 828z" />
<glyph unicode="&#xc7;" horiz-adv-x="1194" d="M116 555v196q0 260 129.5 418t342 158t335.5 -108t120 -305l-2 -5h-42q0 176 -109 273t-301 97t-308.5 -144.5t-116.5 -381.5v-198q0 -239 116.5 -383t310 -144t301 94t107.5 277h42l2 -5q3 -199 -119.5 -307t-335.5 -108t-342.5 158t-129.5 418zM558 -400 q92 0 152.5 35.5t60.5 89.5t-35.5 78.5t-134.5 35.5l23 108l47 -1l-10 -68q160 -13 160 -151q0 -78 -68.5 -124.5t-188.5 -46.5z" />
<glyph unicode="&#xc8;" horiz-adv-x="1049" d="M162 0v1310h797v-48h-748v-555h657v-48h-657v-610h748v-49h-797zM334 1764l2 4h80l198 -234l-2 -5h-68z" />
<glyph unicode="&#xc9;" horiz-adv-x="1049" d="M162 0v1310h797v-48h-748v-555h657v-48h-657v-610h748v-49h-797zM548 1569l171 239h59l-176 -239h-54z" />
<glyph unicode="&#xca;" horiz-adv-x="1049" d="M162 0v1310h797v-48h-748v-555h657v-48h-657v-610h748v-49h-797zM336 1583v13l207 215h36l210 -219v-9h-61l-168 176l-167 -176h-57z" />
<glyph unicode="&#xcb;" horiz-adv-x="1049" d="M162 0v1310h797v-48h-748v-555h657v-48h-657v-610h748v-49h-797zM317 1735q0 21 14 35.5t35 14.5t36 -15t15 -35.5t-15 -35t-36 -14.5t-35 14.5t-14 35.5zM717 1734.5q0 20.5 14.5 35.5t35 15t35.5 -15t15 -35.5t-15 -35t-35.5 -14.5t-35 14.5t-14.5 35z" />
<glyph unicode="&#xcc;" horiz-adv-x="481" d="M-2 1764l2 4h80l198 -234l-2 -5h-68zM212 0v1310h49v-1310h-49z" />
<glyph unicode="&#xcd;" horiz-adv-x="481" d="M194 0v1310h49v-1310h-49zM194 1569l171 239h59l-176 -239h-54z" />
<glyph unicode="&#xce;" horiz-adv-x="481" d="M2 1583v13l207 215h36l210 -219v-9h-61l-168 176l-167 -176h-57zM214 0v1310h49v-1310h-49z" />
<glyph unicode="&#xcf;" horiz-adv-x="481" d="M-15 1735q0 21 14 35.5t35 14.5t36 -15t15 -35.5t-15 -35t-36 -14.5t-35 14.5t-14 35.5zM216 0v1310h49v-1310h-49zM385 1734.5q0 20.5 14.5 35.5t35 15t35.5 -15t15 -35.5t-15 -35t-35.5 -14.5t-35 14.5t-14.5 35z" />
<glyph unicode="&#xd0;" horiz-adv-x="1233" d="M54 642v48h153v620h363q153 0 275.5 -71.5t193.5 -202.5t72 -291v-170q0 -164 -68.5 -295t-192.5 -205.5t-276 -74.5h-367v642h-153zM256 49h305q223 0 362 148.5t139 384.5v156q0 148 -62 267t-175 187q-112 69 -248 70h-321v-572h326v-48h-326v-593z" />
<glyph unicode="&#xd1;" horiz-adv-x="1304" d="M160 0v1310h50l840 -1217l6 2v1215h48v-1310h-48l-841 1220l-5 -1v-1219h-50zM386 1620q0 71 44.5 116t113.5 45q58 0 139 -55.5t124.5 -55.5t74 32t30.5 85h49q0 -73 -45 -120t-113 -47q-41 0 -90 28t-93.5 56.5t-75.5 28.5q-50 0 -79 -31t-29 -82h-50z" />
<glyph unicode="&#xd2;" horiz-adv-x="1228" d="M108 555v196q0 268 131 422t361.5 154t363 -154.5t132.5 -421.5v-196q0 -267 -131.5 -421.5t-362.5 -154.5t-362.5 154t-131.5 422zM157 555q0 -247 116.5 -387t329.5 -140t328.5 139.5t115.5 387.5v198q0 245 -116.5 385.5t-329 140.5t-328.5 -140.5t-116 -385.5v-198z M397 1785l2 4h80l198 -234l-2 -5h-68z" />
<glyph unicode="&#xd3;" horiz-adv-x="1228" d="M107 555v196q0 268 131 422t361.5 154t363 -154.5t132.5 -421.5v-196q0 -267 -131.5 -421.5t-362.5 -154.5t-362.5 154t-131.5 422zM156 555q0 -247 116.5 -387t329.5 -140t328.5 139.5t115.5 387.5v198q0 245 -116.5 385.5t-329 140.5t-328.5 -140.5t-116 -385.5v-198z M610 1590l171 239h59l-176 -239h-54z" />
<glyph unicode="&#xd4;" horiz-adv-x="1228" d="M107 555v196q0 268 131 422t361.5 154t363 -154.5t132.5 -421.5v-196q0 -267 -131.5 -421.5t-362.5 -154.5t-362.5 154t-131.5 422zM156 555q0 -247 116.5 -387t329.5 -140t328.5 139.5t115.5 387.5v198q0 245 -116.5 385.5t-329 140.5t-328.5 -140.5t-116 -385.5v-198z M398 1583v13l207 215h36l210 -219v-9h-61l-168 176l-167 -176h-57z" />
<glyph unicode="&#xd5;" horiz-adv-x="1228" d="M107 555v196q0 268 131 422t361.5 154t363 -154.5t132.5 -421.5v-196q0 -267 -131.5 -421.5t-362.5 -154.5t-362.5 154t-131.5 422zM156 555q0 -247 116.5 -387t329.5 -140t328.5 139.5t115.5 387.5v198q0 245 -116.5 385.5t-329 140.5t-328.5 -140.5t-116 -385.5v-198z M343 1641q0 71 44.5 116t113.5 45q40 0 90 -28t95.5 -55.5t73.5 -27.5q48 0 78.5 32t30.5 85h49q0 -73 -45 -120t-113 -47q-33 0 -71 17.5t-67 39.5q-76 56 -123.5 56t-76.5 -31t-29 -82h-50z" />
<glyph unicode="&#xd6;" horiz-adv-x="1228" d="M107 555v196q0 268 131 422t361.5 154t363 -154.5t132.5 -421.5v-196q0 -267 -131.5 -421.5t-362.5 -154.5t-362.5 154t-131.5 422zM156 555q0 -247 116.5 -387t329.5 -140t328.5 139.5t115.5 387.5v198q0 245 -116.5 385.5t-329 140.5t-328.5 -140.5t-116 -385.5v-198z M379 1756q0 21 14 35.5t35 14.5t36 -15t15 -35.5t-15 -35t-36 -14.5t-35 14.5t-14 35.5zM779 1755.5q0 20.5 14.5 35.5t35 15t35.5 -15t15 -35.5t-15 -35t-35.5 -14.5t-35 14.5t-14.5 35z" />
<glyph unicode="&#xd7;" horiz-adv-x="947" d="M88 285l346 354l-321 328l35 35l320 -328l321 328l35 -35l-321 -328l347 -354l-35 -33l-346 352l-346 -352z" />
<glyph unicode="&#xd8;" horiz-adv-x="1228" d="M120 560v187q0 170 60.5 300.5t174 202t258.5 71.5q207 0 344 -141l100 158h59l-126 -198q116 -152 118 -392v-198q0 -171 -60.5 -301.5t-173 -202.5t-259.5 -72q-174 0 -301 101l-95 -150h-60l117 185q-156 157 -156 450zM169 550q0 -258 134 -399l627 987 q-119 134 -320.5 134t-321 -142t-119.5 -389v-191zM340 116q111 -93 275 -93q206 0 325 142.5t119 391.5v191q0 213 -96 349z" />
<glyph unicode="&#xd9;" horiz-adv-x="1229" d="M149 420v888h48v-888q0 -183 110 -287.5t289.5 -104.5t289.5 105t110 287v888h48v-888q0 -211 -121 -326t-326.5 -115t-326.5 115.5t-121 325.5zM413 1764l2 4h80l198 -234l-2 -5h-68z" />
<glyph unicode="&#xda;" horiz-adv-x="1229" d="M147 420v888h48v-888q0 -183 110 -287.5t289.5 -104.5t289.5 105t110 287v888h48v-888q0 -211 -121 -326t-326.5 -115t-326.5 115.5t-121 325.5zM626 1569l171 239h59l-176 -239h-54z" />
<glyph unicode="&#xdb;" horiz-adv-x="1229" d="M147 420v888h48v-888q0 -183 110 -287.5t289.5 -104.5t289.5 105t110 287v888h48v-888q0 -211 -121 -326t-326.5 -115t-326.5 115.5t-121 325.5zM414 1583v13l207 215h36l210 -219v-9h-61l-168 176l-167 -176h-57z" />
<glyph unicode="&#xdc;" horiz-adv-x="1229" d="M147 420v888h48v-888q0 -183 110 -287.5t289.5 -104.5t289.5 105t110 287v888h48v-888q0 -211 -121 -326t-326.5 -115t-326.5 115.5t-121 325.5zM395 1735q0 21 14 35.5t35 14.5t36 -15t15 -35.5t-15 -35t-36 -14.5t-35 14.5t-14 35.5zM795 1734.5q0 20.5 14.5 35.5 t35 15t35.5 -15t15 -35.5t-15 -35t-35.5 -14.5t-35 14.5t-14.5 35z" />
<glyph unicode="&#xdd;" horiz-adv-x="1101" d="M29 1310h60l433 -728l23 -45l24 45l435 728h60l-493 -812v-498h-49v498zM552 1558l171 239h59l-176 -239h-54z" />
<glyph unicode="&#xde;" horiz-adv-x="1097" d="M180 0v1310h49v-281h339q185 -2 292.5 -101.5t107.5 -263t-105.5 -262t-287.5 -101.5h-346v-301h-49zM229 349h334q161 0 258.5 87.5t97.5 226.5t-93.5 226.5t-249.5 90.5h-347v-631z" />
<glyph unicode="&#xdf;" horiz-adv-x="1065" d="M149 -1v1029q0 172 75.5 262t220.5 90q115 0 197.5 -72t82.5 -178q0 -50 -26.5 -117.5t-53.5 -138.5t-27 -126t37 -102.5t129.5 -116t132.5 -129.5t40 -137t-46 -141.5t-126 -104.5q-80 -37 -159 -37t-162 24.5t-119 55.5l22 44q41 -32 113.5 -54t137.5 -22 q122 0 205.5 71t83.5 175q0 59 -37 109.5t-131 119t-132.5 123.5t-38.5 122.5t51 199t51 183.5q0 81 -65.5 140.5t-151.5 59.5q-253 0 -257 -295l1 -1037h-48z" />
<glyph unicode="&#xe0;" horiz-adv-x="973" d="M76 250q0 125 115.5 207.5t289.5 82.5h278v142q0 122 -78 189.5t-214.5 67.5t-217 -63.5t-80.5 -164.5l-41 1l-2 5q-5 115 89 193t250 78t249 -80t93 -228v-488q0 -111 25 -195h-54q-20 108 -20 166l1 13q-52 -92 -153 -145.5t-238 -53.5t-214.5 74t-77.5 199zM123 252 q0 -101 67 -163t176 -62q144 0 244 63.5t148 182.5v219h-275q-153 0 -256.5 -69.5t-103.5 -170.5zM302 1445l2 4h80l198 -234l-2 -5h-68z" />
<glyph unicode="&#xe1;" horiz-adv-x="973" d="M76 250q0 125 115.5 207.5t289.5 82.5h278v142q0 122 -78 189.5t-214.5 67.5t-217 -63.5t-80.5 -164.5l-41 1l-2 5q-5 115 89 193t250 78t249 -80t93 -228v-488q0 -111 25 -195h-54q-20 108 -20 166l1 13q-52 -92 -153 -145.5t-238 -53.5t-214.5 74t-77.5 199zM123 252 q0 -101 67 -163t176 -62q144 0 244 63.5t148 182.5v219h-275q-153 0 -256.5 -69.5t-103.5 -170.5zM516 1250l171 239h59l-176 -239h-54z" />
<glyph unicode="&#xe2;" horiz-adv-x="973" d="M76 250q0 125 115.5 207.5t289.5 82.5h278v142q0 122 -78 189.5t-214.5 67.5t-217 -63.5t-80.5 -164.5l-41 1l-2 5q-5 115 89 193t250 78t249 -80t93 -228v-488q0 -111 25 -195h-54q-20 108 -20 166l1 13q-52 -92 -153 -145.5t-238 -53.5t-214.5 74t-77.5 199zM123 252 q0 -101 67 -163t176 -62q144 0 244 63.5t148 182.5v219h-275q-153 0 -256.5 -69.5t-103.5 -170.5zM304 1264v13l207 215h36l210 -219v-9h-61l-168 176l-167 -176h-57z" />
<glyph unicode="&#xe3;" horiz-adv-x="973" d="M76 250q0 125 115.5 207.5t289.5 82.5h278v142q0 122 -78 189.5t-214.5 67.5t-217 -63.5t-80.5 -164.5l-41 1l-2 5q-5 115 89 193t250 78t249 -80t93 -228v-488q0 -111 25 -195h-54q-20 108 -20 166l1 13q-52 -92 -153 -145.5t-238 -53.5t-214.5 74t-77.5 199zM123 252 q0 -101 67 -163t176 -62q144 0 244 63.5t148 182.5v219h-275q-153 0 -256.5 -69.5t-103.5 -170.5zM249 1300q0 71 44.5 116t113.5 45q58 0 139 -55.5t124.5 -55.5t74 32t30.5 85h49q0 -73 -45 -120t-113 -47q-41 0 -90 28t-93.5 56.5t-75.5 28.5q-50 0 -79 -31t-29 -82h-50z " />
<glyph unicode="&#xe4;" horiz-adv-x="973" d="M76 250q0 125 115.5 207.5t289.5 82.5h278v142q0 122 -78 189.5t-214.5 67.5t-217 -63.5t-80.5 -164.5l-41 1l-2 5q-5 115 89 193t250 78t249 -80t93 -228v-488q0 -111 25 -195h-54q-20 108 -20 166l1 13q-52 -92 -153 -145.5t-238 -53.5t-214.5 74t-77.5 199zM123 252 q0 -101 67 -163t176 -62q144 0 244 63.5t148 182.5v219h-275q-153 0 -256.5 -69.5t-103.5 -170.5zM285 1416q0 21 14 35.5t35 14.5t36 -15t15 -35.5t-15 -35t-36 -14.5t-35 14.5t-14 35.5zM685 1415.5q0 20.5 14.5 35.5t35 15t35.5 -15t15 -35.5t-15 -35t-35.5 -14.5 t-35 14.5t-14.5 35z" />
<glyph unicode="&#xe5;" horiz-adv-x="973" d="M75 250q0 125 115.5 207.5t289.5 82.5h278v142q0 122 -78 189.5t-214.5 67.5t-217 -63.5t-80.5 -164.5l-41 1l-2 5q-5 115 89 193t250 78t249 -80t93 -228v-488q0 -111 25 -195h-54q-20 108 -20 166l1 13q-52 -92 -153 -145.5t-238 -53.5t-214.5 74t-77.5 199zM122 252 q0 -101 67 -163t176 -62q144 0 244 63.5t148 182.5v219h-275q-153 0 -256.5 -69.5t-103.5 -170.5zM388 1365.5q0 66.5 45 111.5t109 45t108.5 -46t44.5 -111t-44 -109t-108.5 -44t-109.5 43.5t-45 110zM436 1366q0 -48 29.5 -76.5t76 -28.5t76 28.5t29.5 76.5t-29.5 77.5 t-76 29.5t-76 -29.5t-29.5 -77.5z" />
<glyph unicode="&#xe6;" horiz-adv-x="1562" d="M84 262q0 136 99.5 218.5t280.5 84.5h268v81q0 143 -65.5 219t-202.5 76t-222 -68t-85 -181l-48 6q0 131 100 211.5t260 80.5q128 0 206 -66t99 -193q50 123 143 191t211 68q169 0 266 -105.5t97 -296.5v-71h-708v-69q0 -198 94 -308.5t270.5 -110.5t292.5 117l27 -38 q-70 -70 -146.5 -99t-179.5 -29q-129 0 -220 59t-140 166v-11h1q-44 -97 -146.5 -155.5t-243 -58.5t-224.5 73t-84 209zM133 250q0 -142 121 -195q61 -27 140.5 -27t150 25t122.5 68t65 80v315h-271q-151 -3 -239.5 -74.5t-88.5 -191.5zM786 567h657v29q0 158 -84.5 251.5 t-227 93.5t-235.5 -101.5t-110 -272.5z" />
<glyph unicode="&#xe7;" horiz-adv-x="935" d="M77 466v38q0 221 106 353.5t290 132.5q158 0 259.5 -91t98.5 -248l-2 -5h-42q0 139 -88.5 217t-225.5 78q-167 0 -257 -119t-90 -318v-38q0 -201 89.5 -319.5t259.5 -118.5q132 0 222 70.5t90 199.5h42l2 -6q3 -139 -102.5 -226t-253.5 -87q-185 0 -291.5 132.5 t-106.5 354.5zM431 -400q92 0 152.5 35.5t60.5 89.5t-35.5 78.5t-134.5 35.5l23 108l47 -1l-10 -68q160 -13 160 -151q0 -78 -68.5 -124.5t-188.5 -46.5z" />
<glyph unicode="&#xe8;" horiz-adv-x="929" d="M69 448v58q0 209 116.5 346.5t286.5 137.5t273 -108t103 -290v-75h-730v-69q0 -178 103.5 -299t256.5 -121q108 0 181.5 29t126.5 89l26 -37q-118 -130 -334 -130q-170 0 -289.5 135t-119.5 334zM125 571l3 -5h671v30h-1q0 150 -90 247.5t-234 97.5t-240 -104t-109 -266z M291 1444l2 4h80l198 -234l-2 -5h-68z" />
<glyph unicode="&#xe9;" horiz-adv-x="929" d="M69 448v58q0 209 116.5 346.5t286.5 137.5t273 -108t103 -290v-75h-730v-69q0 -178 103.5 -299t256.5 -121q108 0 181.5 29t126.5 89l26 -37q-118 -130 -334 -130q-170 0 -289.5 135t-119.5 334zM125 571l3 -5h671v30h-1q0 150 -90 247.5t-234 97.5t-240 -104t-109 -266z M505 1249l171 239h59l-176 -239h-54z" />
<glyph unicode="&#xea;" horiz-adv-x="929" d="M69 448v58q0 209 116.5 346.5t286.5 137.5t273 -108t103 -290v-75h-730v-69q0 -178 103.5 -299t256.5 -121q108 0 181.5 29t126.5 89l26 -37q-118 -130 -334 -130q-170 0 -289.5 135t-119.5 334zM125 571l3 -5h671v30h-1q0 150 -90 247.5t-234 97.5t-240 -104t-109 -266z M293 1264v13l207 215h36l210 -219v-9h-61l-168 176l-167 -176h-57z" />
<glyph unicode="&#xeb;" horiz-adv-x="929" d="M69 448v58q0 209 116.5 346.5t286.5 137.5t273 -108t103 -290v-75h-730v-69q0 -178 103.5 -299t256.5 -121q108 0 181.5 29t126.5 89l26 -37q-118 -130 -334 -130q-170 0 -289.5 135t-119.5 334zM125 571l3 -5h671v30h-1q0 150 -90 247.5t-234 97.5t-240 -104t-109 -266z M274 1415q0 21 14 35.5t35 14.5t36 -15t15 -35.5t-15 -35t-36 -14.5t-35 14.5t-14 35.5zM674 1414.5q0 20.5 14.5 35.5t35 15t35.5 -15t15 -35.5t-15 -35t-35.5 -14.5t-35 14.5t-14.5 35z" />
<glyph unicode="&#xec;" horiz-adv-x="365" d="M-55 1422l2 4h80l198 -234l-2 -5h-68zM165 0v974h49v-974h-49z" />
<glyph unicode="&#xed;" horiz-adv-x="365" d="M140 1227l171 239h59l-176 -239h-54zM147 0v974h49v-974h-49z" />
<glyph unicode="&#xee;" horiz-adv-x="365" d="M-50 1264v13l207 215h36l210 -219v-9h-61l-168 176l-167 -176h-57zM169 0v974h49v-974h-49z" />
<glyph unicode="&#xef;" horiz-adv-x="365" d="M-68 1393q0 21 14 35.5t35 14.5t36 -15t15 -35.5t-15 -35t-36 -14.5t-35 14.5t-14 35.5zM169 0v974h49v-974h-49zM332 1392.5q0 20.5 14.5 35.5t35 15t35.5 -15t15 -35.5t-15 -35t-35.5 -14.5t-35 14.5t-14.5 35z" />
<glyph unicode="&#xf0;" horiz-adv-x="1065" d="M156 417q0 208 101 323.5t284 115.5q105 0 195 -40.5t143 -115.5q-33 278 -202 450l-212 -118l-25 43l198 111q-129 112 -334 186l18 45q227 -82 362 -206l182 102l26 -43l-170 -95q110 -113 162.5 -265t52.5 -358v-72q0 -145 -46 -258t-132 -177.5t-197.5 -64.5 t-205.5 56.5t-147 157t-53 223.5zM205 417q0 -105 46.5 -194.5t129.5 -139.5q80 -51 189 -51q141 0 228 119.5t90 314.5v87l-1 50q-41 94 -133 147.5t-213 53.5q-160 0 -248 -102t-88 -285z" />
<glyph unicode="&#xf1;" d="M138 0v974h41l7 -201q92 219 337 219q162 0 240.5 -101t78.5 -318v-573h-49v575q0 196 -69 282t-200 86q-152 0 -234.5 -89t-103.5 -246v-608h-48zM241 1298q0 71 44.5 116t113.5 45q58 0 139 -55.5t124.5 -55.5t74 32t30.5 85h49q0 -73 -45 -120t-113 -47q-41 0 -90 28 t-93.5 56.5t-75.5 28.5q-50 0 -79 -31t-29 -82h-50z" />
<glyph unicode="&#xf2;" horiz-adv-x="1014" d="M70 466v38q0 216 118.5 351t308.5 135t308 -135t118 -351v-38q0 -216 -118 -351.5t-308 -135.5t-308.5 135.5t-118.5 351.5zM119 466q0 -189 104 -313.5t275 -124.5q112 0 198.5 58.5t132 157.5t45.5 222v38q0 184 -105 310.5t-273 126.5q-112 0 -199 -59.5 t-132.5 -158.5t-45.5 -219v-38zM292 1443l2 4h80l198 -234l-2 -5h-68z" />
<glyph unicode="&#xf3;" horiz-adv-x="1014" d="M70 466v38q0 216 118.5 351t308.5 135t308 -135t118 -351v-38q0 -216 -118 -351.5t-308 -135.5t-308.5 135.5t-118.5 351.5zM119 466q0 -189 104 -313.5t275 -124.5q112 0 198.5 58.5t132 157.5t45.5 222v38q0 184 -105 310.5t-273 126.5q-112 0 -199 -59.5 t-132.5 -158.5t-45.5 -219v-38zM506 1248l171 239h59l-176 -239h-54z" />
<glyph unicode="&#xf4;" horiz-adv-x="1014" d="M69 466v38q0 216 118.5 351t308.5 135t308 -135t118 -351v-38q0 -216 -118 -351.5t-308 -135.5t-308.5 135.5t-118.5 351.5zM118 466q0 -189 104 -313.5t275 -124.5q112 0 198.5 58.5t132 157.5t45.5 222v38q0 184 -105 310.5t-273 126.5q-112 0 -199 -59.5 t-132.5 -158.5t-45.5 -219v-38zM293 1264v13l207 215h36l210 -219v-9h-61l-168 176l-167 -176h-57z" />
<glyph unicode="&#xf5;" horiz-adv-x="1014" d="M70 466v38q0 216 118.5 351t308.5 135t308 -135t118 -351v-38q0 -216 -118 -351.5t-308 -135.5t-308.5 135.5t-118.5 351.5zM119 466q0 -189 104 -313.5t275 -124.5q112 0 198.5 58.5t132 157.5t45.5 222v38q0 184 -105 310.5t-273 126.5q-112 0 -199 -59.5 t-132.5 -158.5t-45.5 -219v-38zM239 1298q0 71 44.5 116t113.5 45q58 0 139 -55.5t124.5 -55.5t74 32t30.5 85h49q0 -73 -45 -120t-113 -47q-41 0 -90 28t-93.5 56.5t-75.5 28.5q-50 0 -79 -31t-29 -82h-50z" />
<glyph unicode="&#xf6;" horiz-adv-x="1014" d="M70 466v38q0 216 118.5 351t308.5 135t308 -135t118 -351v-38q0 -216 -118 -351.5t-308 -135.5t-308.5 135.5t-118.5 351.5zM119 466q0 -189 104 -313.5t275 -124.5q112 0 198.5 58.5t132 157.5t45.5 222v38q0 184 -105 310.5t-273 126.5q-112 0 -199 -59.5 t-132.5 -158.5t-45.5 -219v-38zM275 1414q0 21 14 35.5t35 14.5t36 -15t15 -35.5t-15 -35t-36 -14.5t-35 14.5t-14 35.5zM675 1413.5q0 20.5 14.5 35.5t35 15t35.5 -15t15 -35.5t-15 -35t-35.5 -14.5t-35 14.5t-14.5 35z" />
<glyph unicode="&#xf7;" horiz-adv-x="1043" d="M66 642v46h898v-46h-898zM482 241v110h86v-110h-86zM482 942v110h86v-110h-86z" />
<glyph unicode="&#xf8;" d="M79 455l1 37q0 141 53.5 251.5t151 172.5t214 62t209.5 -50l75 155h57l-89 -183q87 -64 134.5 -169.5t47.5 -239.5v-37q0 -141 -53 -251.5t-151.5 -173t-221.5 -62.5q-99 0 -189 44l-76 -156h-56l88 181q-93 62 -144 172t-51 247zM127 453q0 -119 44 -216.5t123 -154.5 l389 799q-78 48 -179 48q-166 0 -271.5 -126t-105.5 -321v-29zM338 54q74 -39 168 -39q167 0 271.5 124.5t104.5 322.5l1 29q0 111 -41.5 205.5t-116.5 154.5z" />
<glyph unicode="&#xf9;" d="M134 416v556h49v-557q0 -194 71 -290.5t199 -96.5q148 0 231 71.5t106 200.5v672h50v-974h-41l-7 175q-96 -194 -337 -194q-155 0 -238 108.5t-83 328.5zM296 1445l2 4h80l198 -234l-2 -5h-68z" />
<glyph unicode="&#xfa;" d="M134 416v556h49v-557q0 -194 71 -290.5t199 -96.5q148 0 231 71.5t106 200.5v672h50v-974h-41l-7 175q-96 -194 -337 -194q-155 0 -238 108.5t-83 328.5zM510 1250l171 239h59l-176 -239h-54z" />
<glyph unicode="&#xfb;" d="M134 416v556h49v-557q0 -194 71 -290.5t199 -96.5q148 0 231 71.5t106 200.5v672h50v-974h-41l-7 175q-96 -194 -337 -194q-155 0 -238 108.5t-83 328.5zM298 1264v13l207 215h36l210 -219v-9h-61l-168 176l-167 -176h-57z" />
<glyph unicode="&#xfc;" d="M134 416v556h49v-557q0 -194 71 -290.5t199 -96.5q148 0 231 71.5t106 200.5v672h50v-974h-41l-7 175q-96 -194 -337 -194q-155 0 -238 108.5t-83 328.5zM279 1416q0 21 14 35.5t35 14.5t36 -15t15 -35.5t-15 -35t-36 -14.5t-35 14.5t-14 35.5zM679 1415.5 q0 20.5 14.5 35.5t35 15t35.5 -15t15 -35.5t-15 -35t-35.5 -14.5t-35 14.5t-14.5 35z" />
<glyph unicode="&#xfd;" horiz-adv-x="880" d="M35 930h53l320 -797l36 -97h6l342 894h54l-433 -1136q-23 -59 -42.5 -95t-49.5 -70.5t-71 -50t-90.5 -15.5t-75.5 10l8 46q26 -8 61 -8q79 0 126 45.5t85 146.5l59 159zM462 1250l171 239h59l-176 -239h-54z" />
<glyph unicode="&#xfe;" d="M154 -416v1757h49v-582q50 92 135.5 141.5t194.5 49.5q172 0 269.5 -131t97.5 -367v-16q0 -229 -98 -362.5t-267 -133.5q-111 0 -197.5 44.5t-134.5 125.5v-526h-49zM202 201q38 -102 123.5 -157t209.5 -55h1q151 0 233 119t82 338.5t-83.5 337.5t-233.5 118 q-124 0 -209 -63.5t-123 -182.5v-455z" />
<glyph unicode="&#xff;" horiz-adv-x="880" d="M35 930h53l320 -797l36 -97h6l342 894h54l-433 -1136q-23 -59 -42.5 -95t-49.5 -70.5t-71 -50t-90.5 -15.5t-75.5 10l8 46q26 -8 61 -8q79 0 126 45.5t85 146.5l59 159zM231 1416q0 21 14 35.5t35 14.5t36 -15t15 -35.5t-15 -35t-36 -14.5t-35 14.5t-14 35.5zM631 1415.5 q0 20.5 14.5 35.5t35 15t35.5 -15t15 -35.5t-15 -35t-35.5 -14.5t-35 14.5t-14.5 35z" />
<glyph unicode="&#x152;" horiz-adv-x="1686" d="M101 506v284q0 156 58 278t164.5 190t237.5 68t304 -18h756v-48h-749v-564h657v-48h-657v-601h749l-1 -50h-756q-177 -19 -304.5 -19t-233.5 66.5t-164.5 187.5t-60.5 274zM148 515q0 -142 52.5 -253.5t148.5 -173.5h2q93 -61 218 -61q167 0 255 11v1227q-99 12 -259 12 q-190 0 -303.5 -133t-113.5 -360v-269z" />
<glyph unicode="&#x153;" horiz-adv-x="1732" d="M83 461v43q0 140 53.5 251t151.5 173q94 62 221 62q149 0 255.5 -84.5t150.5 -235.5q41 146 144.5 233t238.5 87q168 0 270.5 -109t102.5 -293v-71h-730v-69q0 -114 47 -211t131 -153q86 -55 182 -55q207 0 307 118l27 -38q-116 -129 -334 -129q-133 0 -240 87t-148 229 q-43 -150 -150.5 -233t-252.5 -83q-124 0 -221 60.5t-151.5 173t-54.5 247.5zM130 465q0 -122 48.5 -222.5t134 -157t197.5 -56.5q168 0 272.5 124.5t104.5 322.5v28q0 121 -49 222t-134.5 158t-194.5 57q-167 0 -272.5 -126t-105.5 -320zM942 566h679v30q0 153 -91 249 t-233 96t-240 -104t-115 -271z" />
<glyph unicode="&#x178;" horiz-adv-x="1101" d="M29 1310h60l433 -728l23 -45l24 45l435 728h60l-493 -812v-498h-49v498zM321 1724q0 21 14 35.5t35 14.5t36 -15t15 -35.5t-15 -35t-36 -14.5t-35 14.5t-14 35.5zM721 1723.5q0 20.5 14.5 35.5t35 15t35.5 -15t15 -35.5t-15 -35t-35.5 -14.5t-35 14.5t-14.5 35z" />
<glyph unicode="&#x2c6;" horiz-adv-x="716" d="M137 1264v13l207 215h36l210 -219v-9h-61l-168 176l-167 -176h-57z" />
<glyph unicode="&#x2dc;" horiz-adv-x="735" d="M81 1286q0 71 44.5 116t113.5 45q58 0 139 -55.5t124.5 -55.5t74 32t30.5 85h49q0 -73 -45 -120t-113 -47q-41 0 -90 28t-93.5 56.5t-75.5 28.5q-50 0 -79 -31t-29 -82h-50z" />
<glyph unicode="&#x2000;" horiz-adv-x="920" />
<glyph unicode="&#x2001;" horiz-adv-x="1841" />
<glyph unicode="&#x2002;" horiz-adv-x="920" />
<glyph unicode="&#x2003;" horiz-adv-x="1841" />
<glyph unicode="&#x2004;" horiz-adv-x="613" />
<glyph unicode="&#x2005;" horiz-adv-x="460" />
<glyph unicode="&#x2006;" horiz-adv-x="306" />
<glyph unicode="&#x2007;" horiz-adv-x="306" />
<glyph unicode="&#x2008;" horiz-adv-x="230" />
<glyph unicode="&#x2009;" horiz-adv-x="368" />
<glyph unicode="&#x200a;" horiz-adv-x="102" />
<glyph unicode="&#x2010;" horiz-adv-x="546" d="M55 599v49h423v-49h-423z" />
<glyph unicode="&#x2011;" horiz-adv-x="546" d="M55 599v49h423v-49h-423z" />
<glyph unicode="&#x2012;" horiz-adv-x="546" d="M55 599v49h423v-49h-423z" />
<glyph unicode="&#x2013;" horiz-adv-x="1271" d="M137 721v44h879v-44h-879z" />
<glyph unicode="&#x2014;" horiz-adv-x="1506" d="M139 721v44h1081v-44h-1081z" />
<glyph unicode="&#x2018;" horiz-adv-x="458" d="M175 1011v149l63 244h45l-59 -240v-153h-49z" />
<glyph unicode="&#x2019;" horiz-adv-x="458" d="M175 1011l59 241v152h49v-149l-63 -244h-45z" />
<glyph unicode="&#x201a;" horiz-adv-x="270" d="M42 -153q72 91 80 193v147h49v-128h1q-5 -144 -96 -241z" />
<glyph unicode="&#x201c;" horiz-adv-x="620" d="M175 1011v149l63 244h45l-59 -240v-153h-49zM337 1011v149l63 244h45l-59 -240v-153h-49z" />
<glyph unicode="&#x201d;" horiz-adv-x="622" d="M175 1011l59 241v152h49v-149l-63 -244h-45zM339 1011l59 241v152h49v-149l-63 -244h-45z" />
<glyph unicode="&#x201e;" horiz-adv-x="433" d="M42 -153q72 91 80 193v147h49v-128h1q-5 -144 -96 -241zM196 -153q73 92 79 193l1 147h49v-128q-4 -141 -95 -241z" />
<glyph unicode="&#x2022;" horiz-adv-x="572" d="M140 687v63q0 64 40.5 104t108.5 40t109.5 -40.5t41.5 -103.5v-63q0 -63 -41 -102.5t-109 -39.5t-109 39t-41 103z" />
<glyph unicode="&#x2026;" horiz-adv-x="1130" d="M174 0v105h70v-105h-70zM520 0v105h70v-105h-70zM852 0v105h70v-105h-70z" />
<glyph unicode="&#x202f;" horiz-adv-x="368" />
<glyph unicode="&#x2039;" horiz-adv-x="544" d="M97 514v17l266 333h63l-265 -342l265 -341h-63z" />
<glyph unicode="&#x203a;" horiz-adv-x="544" d="M95 171l264 341l-264 351h63l265 -342v-17l-265 -333h-63z" />
<glyph unicode="&#x205f;" horiz-adv-x="460" />
<glyph unicode="&#x20ac;" d="M65 524v49h184v172h-184v50h184v38q2 233 128.5 363t351.5 130q88 0 200 -28v-52q-104 32 -200 32q-207 0 -318.5 -115.5t-112.5 -330.5v-37h409v-50h-409v-172h409v-49h-409v-45q0 -216 114.5 -333.5t318.5 -117.5q105 0 198 30v-51q-93 -28 -198 -28q-226 0 -354 133 t-128 369v43h-184z" />
<glyph unicode="&#x2122;" horiz-adv-x="1122" d="M100 1351v51h356v-51h-153v-432h-50v432h-153zM534 919v483h62l158 -413l159 413h62v-483h-50v393l-147 -393h-47l-148 406v-406h-49z" />
<glyph unicode="&#x25fc;" horiz-adv-x="975" d="M0 0v975h975v-975h-975z" />
</font>
</defs>
</svg>
